<svg xmlns="http://www.w3.org/2000/svg" width="800px" height="800px" viewBox="0 0 800 800">
    <!-- Transparent background -->
    <rect width="100%" height="100%" fill="none" />

    <g stroke="#333" stroke-width="1" fill="none">
        <!-- Fibonacci Spiral and 90-degree lines -->
        <path d="M400,400 M0,0 Q100,0 100,100 Q0,100 0,200 Q0,300 100,300 Q200,300 200,200 Q200,100 300,100 Q400,100 400,200 Q400,300 300,300 Q200,300 200,400 Q200,500 300,500 Q400,500 400,400 Q400,300 500,300 Q600,300 600,200 Q600,100 700,100 Q800,100 800,0 Q800,-100 700,-100 Q600,-100 600,0 Q600,100 500,100 Q400,100 400,0 Q400,-100 300,-100 Q200,-100 200,0 Q200,100 100,100 Q0,100 0,0" />
        
        <!-- Horizontal and Vertical 90-degree lines -->
        <line x1="400" y1="0" x2="400" y2="800" />
        <line x1="0" y1="400" x2="800" y2="400" />
    </g>
</svg>
