<?xml version="1.0" standalone="no"?>
<!DOCTYPE svg PUBLIC "-//W3C//DTD SVG 20010904//EN"
 "http://www.w3.org/TR/2001/REC-SVG-20010904/DTD/svg10.dtd">
<svg version="1.0" xmlns="http://www.w3.org/2000/svg"
 width="300.000000pt" height="190.000000pt" viewBox="0 0 300.000000 190.000000"
 preserveAspectRatio="xMidYMid meet">
<metadata>
Created by potrace 1.10, written by Peter Selinger 2001-2011
</metadata>
<g transform="translate(0.000000,190.000000) scale(0.100000,-0.100000)"
fill="#adadad" stroke="none">
<path d="M54 1835 c-3 -7 -4 -411 -2 -897 l3 -883 1448 0 1448 0 0 795 c-1
437 -1 840 -1 896 l0 101 -1445 1 c-1233 1 -1447 -1 -1451 -13z m1526 -12
c-387 -61 -724 -230 -994 -499 -254 -254 -421 -558 -492 -899 l-23 -110 0 758
-1 757 768 -1 c422 -1 756 -4 742 -6z m260 -878 l0 -885 -887 0 -886 0 6 110
c24 423 214 837 523 1142 117 115 148 141 276 225 263 174 610 285 906 292
l62 1 0 -885z m279 849 c183 -48 344 -139 487 -276 188 -180 311 -439 331
-695 l6 -83 -547 0 -546 0 0 546 0 547 86 -7 c48 -4 130 -18 183 -32z m821
-411 l-1 -448 -23 85 c-57 208 -146 359 -303 511 -147 143 -327 241 -523 285
-46 10 16 12 398 13 l452 1 0 -447z m-955 -670 c-43 -22 -94 -72 -115 -113
l-19 -35 -1 83 0 82 83 0 c81 -1 82 -1 52 -17z m115 -108 l0 -125 -126 0 -126
0 7 37 c17 94 91 175 185 204 61 18 60 20 60 -116z m89 96 c33 -23 59 -60 67
-93 l6 -28 -76 0 -76 0 0 76 0 76 28 -6 c15 -4 38 -15 51 -25z m71 -13 c0 -41
-1 -42 -15 -21 -8 12 -27 31 -41 42 l-27 21 42 0 41 0 0 -42z m680 4 c0 -22
-9 -73 -20 -116 -70 -276 -304 -479 -587 -511 l-63 -7 0 336 0 336 335 0 335
0 0 -38z m0 -372 l0 -260 -267 1 -268 0 60 18 c215 62 402 248 456 454 7 26
14 47 16 47 2 0 3 -117 3 -260z m-682 205 c0 -40 -2 -45 -21 -45 -20 1 -20 2
-4 11 9 5 17 14 17 19 0 5 -15 1 -32 -10 -18 -11 -36 -20 -40 -20 -5 0 -8 20
-8 45 l0 45 43 0 44 0 1 -45z m-98 -17 c0 -18 -6 -23 -28 -24 -15 -1 -21 1
-15 3 9 3 10 10 3 24 -9 16 -7 19 15 19 19 0 25 -5 25 -22z m100 -244 l0 -205
-47 7 c-185 26 -330 171 -357 357 l-7 47 205 0 206 0 0 -206z m-336 -43 c43
-58 117 -116 184 -142 l47 -18 -152 -1 -153 0 0 153 1 152 18 -47 c11 -26 35
-70 55 -97z"/>
</g>
</svg>
